<?xml version="1.0" standalone="no"?>
<!DOCTYPE svg PUBLIC "-//W3C//DTD SVG 20010904//EN"
 "http://www.w3.org/TR/2001/REC-SVG-20010904/DTD/svg10.dtd">
<svg version="1.0" xmlns="http://www.w3.org/2000/svg"
 width="900.000000pt" height="900.000000pt" viewBox="0 0 900.000000 900.000000"
 preserveAspectRatio="xMidYMid meet">
<metadata>
Created by potrace 1.14, written by Peter Selinger 2001-2017
</metadata>
<g transform="translate(0.000000,900.000000) scale(0.100000,-0.100000)"
fill="#000000" stroke="none">
<path d="M0 4500 l0 -4500 4500 0 4500 0 0 4500 0 4500 -4500 0 -4500 0 0
-4500z m4885 2801 l380 -379 110 -17 c404 -61 1211 -186 1262 -196 34 -6 64
-17 67 -25 3 -7 28 -158 55 -336 28 -178 78 -496 111 -708 l60 -384 377 -378
378 -378 -377 -377 -377 -378 -111 -710 c-61 -390 -113 -717 -116 -726 -3 -11
-21 -18 -52 -22 -26 -4 -351 -54 -722 -111 l-674 -106 -378 -377 -378 -378
-377 377 -378 378 -635 99 c-349 55 -675 105 -725 113 l-89 13 -13 80 c-7 44
-58 370 -113 725 l-100 645 -378 378 -377 377 377 378 378 377 111 715 c61
393 115 718 118 722 7 8 268 50 1033 169 l407 63 378 378 c208 208 380 378
383 378 3 0 176 -171 385 -379z"/>
<path d="M4185 7260 c-170 -170 -303 -310 -295 -310 8 0 148 21 311 47 l295
46 318 -49 317 -50 -313 313 c-172 172 -315 313 -318 313 -3 0 -145 -139 -315
-310z"/>
<path d="M4330 6920 c-58 -10 -517 -82 -1020 -160 -503 -78 -918 -145 -923
-149 -9 -9 -2 32 -178 -1091 -80 -510 -143 -940 -146 -1000 -4 -81 0 -131 16
-220 11 -63 77 -479 146 -925 123 -792 154 -987 159 -992 1 -2 204 -34 452
-73 1153 -181 1617 -250 1676 -250 35 0 114 9 174 19 60 11 199 33 309 50
1302 200 1617 249 1622 254 1 2 30 176 63 388 202 1283 252 1615 257 1704 4
76 0 127 -15 215 -12 63 -44 262 -72 442 -96 627 -231 1482 -233 1483 -1 1
-112 18 -247 39 -135 20 -604 93 -1042 162 -439 68 -819 123 -845 123 -27 -1
-95 -9 -153 -19z m205 -504 c69 -29 82 -112 24 -160 -22 -18 -29 -33 -29 -59
0 -31 4 -36 45 -52 95 -36 148 -109 149 -205 1 -30 -2 -66 -6 -80 -7 -24 -1
-29 85 -77 l92 -52 30 29 c71 68 184 81 273 29 29 -16 55 -36 58 -44 10 -24
74 13 74 42 0 91 99 136 161 74 42 -42 41 -99 -2 -135 -33 -28 -76 -34 -111
-15 -17 9 -28 8 -54 -6 -29 -15 -31 -20 -23 -42 31 -83 -12 -205 -90 -255 -25
-16 -58 -32 -73 -35 l-28 -5 0 -107 0 -106 49 -18 c110 -39 180 -178 142 -281
-9 -22 -6 -27 23 -44 29 -17 36 -18 57 -6 64 36 139 -9 139 -84 0 -119 -170
-125 -189 -7 -4 28 -14 44 -32 54 -24 14 -28 12 -66 -18 -97 -78 -218 -74
-308 9 l-30 28 -90 -52 c-69 -40 -89 -57 -87 -72 1 -10 5 -36 9 -56 14 -91
-56 -203 -148 -235 -47 -17 -49 -19 -49 -55 0 -27 5 -40 20 -48 30 -16 52 -66
45 -100 -8 -38 -59 -80 -95 -80 -36 0 -87 42 -95 80 -7 34 15 84 45 100 15 8
20 21 20 48 0 36 -2 38 -49 55 -61 22 -123 88 -141 152 -11 39 -10 92 2 145 2
7 -37 37 -87 66 l-90 52 -30 -28 c-90 -83 -211 -87 -308 -9 -38 30 -42 32 -66
18 -18 -10 -28 -26 -32 -54 -19 -118 -189 -112 -189 7 0 75 75 120 139 84 21
-12 28 -11 57 6 29 17 32 22 23 44 -38 103 32 242 142 281 l49 18 0 106 0 107
-27 5 c-16 3 -49 19 -74 35 -78 50 -121 172 -90 255 8 22 6 27 -23 42 -26 14
-37 15 -54 6 -41 -22 -101 -9 -129 28 -7 9 -13 35 -13 58 0 97 130 129 175 43
8 -16 15 -40 15 -53 0 -29 64 -66 74 -42 3 8 29 28 58 44 89 52 202 39 273
-29 l30 -29 92 52 c86 48 92 53 85 77 -4 14 -7 50 -6 80 1 96 54 169 149 205
41 16 45 21 45 52 0 26 -7 41 -29 59 -57 48 -48 123 19 156 42 21 33 21 75 4z
m-340 -2608 c24 -19 27 -26 21 -65 -11 -84 -116 -273 -151 -273 -8 0 -19 9
-25 19 -18 35 -11 90 24 179 18 48 36 104 40 125 6 32 10 37 35 37 16 0 41
-10 56 -22z m-111 -459 c23 -18 26 -28 26 -77 0 -31 -11 -127 -25 -212 -25
-153 -30 -220 -19 -220 21 0 51 33 113 125 40 58 76 105 80 105 14 0 22 -142
12 -198 -28 -142 -124 -254 -203 -237 -59 13 -128 168 -128 287 0 32 5 102 12
155 l12 96 -29 53 c-33 60 -31 65 39 116 46 33 74 35 110 7z m797 -12 c59 -40
64 -60 63 -269 -1 -104 2 -188 7 -188 5 0 34 33 64 74 30 41 60 78 66 82 22
13 30 -22 27 -112 -3 -78 -8 -100 -35 -155 -18 -35 -48 -80 -68 -99 l-35 -34
-36 19 c-50 27 -92 78 -100 122 -4 20 -4 130 -1 243 7 250 6 249 -88 -80 -69
-241 -79 -270 -95 -270 -18 0 -83 65 -96 97 -20 46 -17 107 10 273 14 80 23
147 20 149 -8 9 -45 -91 -68 -187 -14 -56 -30 -145 -36 -199 -15 -140 -16
-143 -46 -143 -49 0 -107 89 -119 186 -8 56 4 167 36 341 30 161 60 189 76 73
5 -30 13 -55 18 -54 5 1 23 23 38 50 42 72 66 94 102 94 37 0 70 -22 95 -62
l17 -29 43 51 c34 41 48 50 74 50 18 0 48 -10 67 -23z"/>
<path d="M4465 6021 c-51 -22 -72 -74 -51 -126 21 -50 72 -71 120 -51 42 17
70 66 61 105 -12 55 -81 93 -130 72z"/>
<path d="M4218 5739 c-83 -48 -88 -52 -81 -77 14 -48 6 -126 -15 -168 -28 -55
-84 -102 -138 -116 l-44 -12 0 -106 0 -107 43 -12 c118 -35 187 -162 154 -283
-7 -26 -3 -30 85 -82 l92 -54 22 23 c82 88 246 88 328 0 l22 -23 92 54 c88 52
92 56 85 82 -34 121 36 248 155 283 l43 12 -3 105 -3 104 -49 19 c-114 43
-175 164 -143 281 7 25 2 29 -82 78 l-90 51 -46 -35 c-95 -73 -194 -74 -290
-1 -25 19 -46 35 -48 35 -1 0 -41 -23 -89 -51z m367 -144 c208 -54 320 -288
231 -480 -36 -76 -88 -130 -164 -167 -60 -30 -75 -33 -152 -33 -71 0 -95 5
-142 27 -155 72 -238 246 -194 404 35 121 130 217 246 248 72 19 103 19 175 1z"/>
<path d="M4430 5333 c-61 -57 -32 -160 50 -178 37 -8 93 18 111 51 38 71 -11
154 -91 154 -29 0 -47 -7 -70 -27z"/>
<path d="M3853 5666 c-23 -20 -28 -32 -28 -71 0 -39 5 -51 28 -71 38 -32 86
-32 126 2 26 21 31 33 31 69 0 36 -5 48 -31 69 -40 34 -88 34 -126 2z"/>
<path d="M5021 5664 c-26 -21 -31 -33 -31 -69 0 -104 140 -132 180 -36 38 94
-71 171 -149 105z"/>
<path d="M3869 5005 c-55 -30 -62 -116 -12 -155 63 -49 153 -7 153 72 0 76
-74 119 -141 83z"/>
<path d="M5019 4991 c-62 -62 -24 -161 61 -161 46 0 86 30 95 71 21 93 -89
156 -156 90z"/>
<path d="M4443 4665 c-29 -20 -46 -75 -34 -107 13 -35 58 -68 91 -68 33 0 78
33 91 68 12 32 -5 87 -34 107 -28 19 -86 19 -114 0z"/>
<path d="M1735 4810 l-310 -310 310 -310 c170 -170 310 -308 312 -306 1 1 -18
126 -43 277 -54 324 -54 327 5 704 21 138 38 251 37 252 -1 1 -141 -137 -311
-307z"/>
<path d="M6954 5090 c4 -19 25 -147 47 -285 48 -295 48 -303 -10 -675 -21
-135 -38 -246 -37 -247 1 -1 141 137 311 307 l310 310 -313 313 c-285 284
-313 309 -308 277z"/>
<path d="M4187 1738 l313 -313 310 310 c170 170 308 311 306 312 -4 4 -119
-14 -381 -58 -140 -24 -198 -30 -260 -25 -66 4 -464 62 -570 82 -24 5 28 -52
282 -308z"/>
</g>
</svg>
